<svg xmlns="http://www.w3.org/2000/svg" viewBox="0 0 24 24" width="24" height="24" role="img" aria-label="FractalFlow">
  <defs>
    <linearGradient id="ffg" x1="3" y1="3" x2="21" y2="21" gradientUnits="userSpaceOnUse">
      <stop offset="0" stop-color="#2dd4bf"/>
      <stop offset="1" stop-color="#4c8dff"/>
    </linearGradient>
    <mask id="ffm">
      <path fill="#fff" d="M 13.57 12.24 L 13.38 12.41 L 13.22 12.55 L 13.06 12.67 L 12.90 12.77 L 12.75 12.85 L 12.59 12.91 L 12.44 12.95 L 12.30 12.98 L 12.16 13.00 L 12.02 13.00 L 11.90 13.00 L 11.78 12.99 L 11.66 12.98 L 11.55 12.96 L 11.45 12.94 L 11.35 12.92 L 11.25 12.90 L 11.15 12.88 L 11.05 12.86 L 10.95 12.85 L 10.84 12.83 L 10.73 12.81 L 10.60 12.78 L 10.47 12.76 L 10.33 12.72 L 10.18 12.68 L 10.01 12.62 L 9.83 12.55 L 9.64 12.46 L 9.45 12.36 L 9.24 12.22 L 9.03 12.06 L 8.81 11.87 L 8.60 11.65 L 8.39 11.39 L 8.18 11.09 L 7.99 10.75 L 7.82 10.38 L 7.67 9.96 L 7.55 9.51 L 7.47 9.01 L 7.43 8.48 L 7.44 7.91 L 7.50 7.31 L 7.61 6.69 L 7.80 6.04 L 8.04 5.36 L 8.34 4.65 L 8.34 4.65 L 7.69 5.09 L 7.13 5.60 L 6.63 6.16 L 6.19 6.75 L 5.81 7.37 L 5.50 8.01 L 5.25 8.67 L 5.06 9.34 L 4.94 10.02 L 4.89 10.69 L 4.89 11.35 L 4.96 12.00 L 5.08 12.63 L 5.26 13.24 L 5.50 13.82 L 5.78 14.37 L 6.11 14.87 L 6.48 15.34 L 6.89 15.76 L 7.32 16.13 L 7.79 16.45 L 8.27 16.72 L 8.77 16.93 L 9.27 17.09 L 9.78 17.20 L 10.28 17.25 L 10.78 17.25 L 11.26 17.20 L 11.72 17.11 L 12.16 16.97 L 12.57 16.79 L 12.95 16.57 L 13.29 16.32 L 13.59 16.05 L 13.85 15.75 L 14.07 15.44 L 14.25 15.11 L 14.38 14.78 L 14.47 14.45 L 14.52 14.12 L 14.52 13.80 L 14.49 13.50 L 14.42 13.22 L 14.32 12.96 L 14.18 12.72 L 14.02 12.52 L 13.82 12.36 L 13.57 12.24 Z" transform="rotate(0 12 12)"/>
      <path fill="#fff" d="M 13.57 12.24 L 13.38 12.41 L 13.22 12.55 L 13.06 12.67 L 12.90 12.77 L 12.75 12.85 L 12.59 12.91 L 12.44 12.95 L 12.30 12.98 L 12.16 13.00 L 12.02 13.00 L 11.90 13.00 L 11.78 12.99 L 11.66 12.98 L 11.55 12.96 L 11.45 12.94 L 11.35 12.92 L 11.25 12.90 L 11.15 12.88 L 11.05 12.86 L 10.95 12.85 L 10.84 12.83 L 10.73 12.81 L 10.60 12.78 L 10.47 12.76 L 10.33 12.72 L 10.18 12.68 L 10.01 12.62 L 9.83 12.55 L 9.64 12.46 L 9.45 12.36 L 9.24 12.22 L 9.03 12.06 L 8.81 11.87 L 8.60 11.65 L 8.39 11.39 L 8.18 11.09 L 7.99 10.75 L 7.82 10.38 L 7.67 9.96 L 7.55 9.51 L 7.47 9.01 L 7.43 8.48 L 7.44 7.91 L 7.50 7.31 L 7.61 6.69 L 7.80 6.04 L 8.04 5.36 L 8.34 4.65 L 8.34 4.65 L 7.69 5.09 L 7.13 5.60 L 6.63 6.16 L 6.19 6.75 L 5.81 7.37 L 5.50 8.01 L 5.25 8.67 L 5.06 9.34 L 4.94 10.02 L 4.89 10.69 L 4.89 11.35 L 4.96 12.00 L 5.08 12.63 L 5.26 13.24 L 5.50 13.82 L 5.78 14.37 L 6.11 14.87 L 6.48 15.34 L 6.89 15.76 L 7.32 16.13 L 7.79 16.45 L 8.27 16.72 L 8.77 16.93 L 9.27 17.09 L 9.78 17.20 L 10.28 17.25 L 10.78 17.25 L 11.26 17.20 L 11.72 17.11 L 12.16 16.97 L 12.57 16.79 L 12.95 16.57 L 13.29 16.32 L 13.59 16.05 L 13.85 15.75 L 14.07 15.44 L 14.25 15.11 L 14.38 14.78 L 14.47 14.45 L 14.52 14.12 L 14.52 13.80 L 14.49 13.50 L 14.42 13.22 L 14.32 12.96 L 14.18 12.72 L 14.02 12.52 L 13.82 12.36 L 13.57 12.24 Z" transform="rotate(120 12 12)"/>
      <path fill="#fff" d="M 13.57 12.24 L 13.38 12.41 L 13.22 12.55 L 13.06 12.67 L 12.90 12.77 L 12.75 12.85 L 12.59 12.91 L 12.44 12.95 L 12.30 12.98 L 12.16 13.00 L 12.02 13.00 L 11.90 13.00 L 11.78 12.99 L 11.66 12.98 L 11.55 12.96 L 11.45 12.94 L 11.35 12.92 L 11.25 12.90 L 11.15 12.88 L 11.05 12.86 L 10.95 12.85 L 10.84 12.83 L 10.73 12.81 L 10.60 12.78 L 10.47 12.76 L 10.33 12.72 L 10.18 12.68 L 10.01 12.62 L 9.83 12.55 L 9.64 12.46 L 9.45 12.36 L 9.24 12.22 L 9.03 12.06 L 8.81 11.87 L 8.60 11.65 L 8.39 11.39 L 8.18 11.09 L 7.99 10.75 L 7.82 10.38 L 7.67 9.96 L 7.55 9.51 L 7.47 9.01 L 7.43 8.48 L 7.44 7.91 L 7.50 7.31 L 7.61 6.69 L 7.80 6.04 L 8.04 5.36 L 8.34 4.65 L 8.34 4.65 L 7.69 5.09 L 7.13 5.60 L 6.63 6.16 L 6.19 6.75 L 5.81 7.37 L 5.50 8.01 L 5.25 8.67 L 5.06 9.34 L 4.94 10.02 L 4.89 10.69 L 4.89 11.35 L 4.96 12.00 L 5.08 12.63 L 5.26 13.24 L 5.50 13.82 L 5.78 14.37 L 6.11 14.87 L 6.48 15.34 L 6.89 15.76 L 7.32 16.13 L 7.79 16.45 L 8.27 16.72 L 8.77 16.93 L 9.27 17.09 L 9.78 17.20 L 10.28 17.25 L 10.78 17.25 L 11.26 17.20 L 11.72 17.11 L 12.16 16.97 L 12.57 16.79 L 12.95 16.57 L 13.29 16.32 L 13.59 16.05 L 13.85 15.75 L 14.07 15.44 L 14.25 15.11 L 14.38 14.78 L 14.47 14.45 L 14.52 14.12 L 14.52 13.80 L 14.49 13.50 L 14.42 13.22 L 14.32 12.96 L 14.18 12.72 L 14.02 12.52 L 13.82 12.36 L 13.57 12.24 Z" transform="rotate(240 12 12)"/>
      <circle cx="12" cy="12" r="1.05" fill="#000"/>
    </mask>
  </defs>
  <rect width="24" height="24" fill="url(#ffg)" mask="url(#ffm)"/>
</svg>
